<svg xmlns="http://www.w3.org/2000/svg" width="266.6667" height="266.6667"><defs><clipPath id="a" clipPathUnits="userSpaceOnUse"><path d="M-230.4863-157.493h1612.659V42.009h-1612.659Z"/></clipPath><clipPath id="b" clipPathUnits="userSpaceOnUse"><path d="M-200 100h1612.659v-200H-200Z"/></clipPath><clipPath id="c" clipPathUnits="userSpaceOnUse"><path d="M-114.142 1.0001h1612.659v-200H-114.142Z"/></clipPath><clipPath id="d" clipPathUnits="userSpaceOnUse"><path d="M-170 100h1612.659v-200H-170Z"/></clipPath><clipPath id="e" clipPathUnits="userSpaceOnUse"><path d="M-130 100h1612.659v-200H-130Z"/></clipPath></defs><path fill="#fff" fill-rule="evenodd" d="M0 0c0-55.228-44.772-100-100-100S-200-55.228-200 0s44.772 100 100 100S0 55.228 0 0" clip-path="url(#b)" transform="matrix(1.3333 0 0 -1.3333 266.6667 133.3333)"/><path fill="#1e5df8" fill-rule="evenodd" d="m0 0-57.782-57.782-14.142 14.143L-28.284 0c-48.53-6.871-85.858-48.573-85.858-99 0-50.397 37.283-92.079 85.77-98.987l58.77 58.769L44.54-153.36-.116-198.016C48.471-191.195 85.858-149.467 85.858-99 85.858-48.573 48.53-6.871 0 0" clip-path="url(#c)" transform="matrix(1.3333 0 0 -1.3333 152.1893 1.3335)"/><path fill="none" stroke="#fff" stroke-miterlimit="10" stroke-width="20" d="M0 0c0-38.66-31.34-70-70-70s-70 31.34-70 70 31.34 70 70 70S0 38.66 0 0Z" clip-path="url(#d)" transform="matrix(1.3333 0 0 -1.3333 226.6667 133.3333)"/><path fill="none" stroke="#fff" stroke-miterlimit="10" stroke-width="20" d="M0 0c0-16.569-13.431-30-30-30-16.569 0-30 13.431-30 30 0 16.569 13.431 30 30 30C-13.431 30 0 16.569 0 0Z" clip-path="url(#e)" transform="matrix(1.3333 0 0 -1.3333 173.3333 133.3333)"/></svg>